<svg xmlns="http://www.w3.org/2000/svg" xmlns:xlink="http://www.w3.org/1999/xlink" width="169.536" height="45" viewBox="0 0 169.536 45">
  <defs>
    <linearGradient id="linear-gradient" y1="0.5" x2="1.001" y2="0.5" gradientUnits="objectBoundingBox">
      <stop offset="0" stop-color="#52c3e7"/>
      <stop offset="1" stop-color="#0089cc"/>
    </linearGradient>
  </defs>
  <path id="Revolut-logo-coloured_1_" d="M17.4,49.732a59.13,59.13,0,0,0-8.392.714h0a59.13,59.13,0,0,1,8.392-.714m2.143,5H17.581a22.428,22.428,0,0,0-.357,2.41L15.8,65.8h2.41c3.125,0,5.446-2.589,5.446-6.517,0-2.767-1.607-4.553-4.107-4.553m26.6,9.374c-1.428,0-2.41,2.767-2.946,5h.8A3.261,3.261,0,0,0,47.4,66.515V65.98a2.05,2.05,0,0,0-.357-1.25.887.887,0,0,0-.893-.625m46.689.357c-.089,0-.089-.089-.179-.089a.537.537,0,0,0-.357-.089,1.014,1.014,0,0,0-.714.268c-.089.089-.179.089-.268.179s-.089.179-.179.179a5.8,5.8,0,0,0-.982,1.964c-.089.089-.089.268-.179.446-.179.446-.268.982-.446,1.428-.089.357-.179.8-.268,1.161a27.926,27.926,0,0,0-.357,3.928A14.465,14.465,0,0,0,89,75.8a.8.8,0,0,0,.089.446l.268,1.071.268.536c.268.536.536.8.893.8a.8.8,0,0,0,.446-.089,1.867,1.867,0,0,0,.536-.357,9.206,9.206,0,0,0,1.518-3.125l.268-1.071.268-1.339A13.32,13.32,0,0,0,93.73,70.8a11.965,11.965,0,0,0,.089-1.785,9.537,9.537,0,0,0-.536-3.839,1.068,1.068,0,0,0-.446-.714m68.383,7.856.446-3.035a9.528,9.528,0,0,0,4.642-1.339,6.549,6.549,0,0,0,3.214-5.892,10.64,10.64,0,0,0-1.25-5,5.031,5.031,0,0,0-4.374-2.589h-.268a5.078,5.078,0,0,0-5-4.821,50.8,50.8,0,0,0-7.41.536,5.429,5.429,0,0,0-4.2,4.464c0,.089-5.713,0-9.463,0A6.761,6.761,0,0,0,133.1,56.07s-1.428-1.875-5.267-1.428a39.133,39.133,0,0,0-5.535.714,61.353,61.353,0,0,0,.714-6.963v-.179a5.127,5.127,0,0,0-5-5.089h0a56.211,56.211,0,0,0-10,.982,5.179,5.179,0,0,0-3.839,5.178,76.982,76.982,0,0,1-.893,8.57,13.749,13.749,0,0,0-9.017-3.035,19.787,19.787,0,0,0-9.284,2.232,4.96,4.96,0,0,0-3.839-1.7h0c-2.857,0-5,0-7.053.179a4.957,4.957,0,0,0-3.928,2.41c-.089-.089-.089-.179-.179-.268a5.031,5.031,0,0,0-4.374-2.589,60.2,60.2,0,0,0-10.534,1.25,16.237,16.237,0,0,0-7.142-1.428,18.689,18.689,0,0,0-10.266,2.767c-.536-7.588-7.053-12.766-16.337-12.766,0,0-11.338.446-13.391.893a5,5,0,0,0-3.928,5.178,28.278,28.278,0,0,1-.446,5.356L.262,77.585c-.268,1.25-.893,5.089,1.518,7.945a7.319,7.319,0,0,0,5.892,2.5,22.018,22.018,0,0,0,8.392-1.607,5.386,5.386,0,0,0,2.053-1.7,9.87,9.87,0,0,0,7.856,3.392,20.546,20.546,0,0,0,9.2-2.232,15.99,15.99,0,0,0,8.57,2.232,18.285,18.285,0,0,0,13.748-5.8c1.785,4.553,5.089,5.624,7.767,5.624a16.622,16.622,0,0,0,7.588-1.607c2.232-1.071,3.214-4.731,3.66-5.535,2.232,4.464,6.7,7.231,12.32,7.231a19.763,19.763,0,0,0,12.409-4.285,13.061,13.061,0,0,0,.8,1.161,9.157,9.157,0,0,0,7.231,2.946,13.179,13.179,0,0,0,7.767-2.232,8.77,8.77,0,0,0,6.428,2.41,14.608,14.608,0,0,0,6.7-1.7,9.892,9.892,0,0,0,5.8,1.607,12.528,12.528,0,0,0,9.106-3.482c1.785,1.785,4.91,3.571,10.266,3.571a15.055,15.055,0,0,0,12.32-7.32c1.964-3.125-.179-8.659-6.428-8.392M32.578,59.195c-.268,3.928-2.767,7.142-6.606,9.2h0l3.482,9.2c.982,2.5,1.607,3.482,2.678,4.285a3.171,3.171,0,0,1-.8.357,15.609,15.609,0,0,1-5.356.8c-1.785,0-4.2-.446-5.713-4.821l-2.589-7.5H15.081L13.92,77.853a11.081,11.081,0,0,0-.268,2.41v.179a3.582,3.582,0,0,0,.268,1.339h0a16.666,16.666,0,0,1-6.249,1.161c-1.339,0-2.589-.446-2.678-2.767A13.319,13.319,0,0,1,5.172,78.3l3.3-21.247a30.428,30.428,0,0,0,.446-4.91v-1.7a48.016,48.016,0,0,1,8.392-.714h3.839a15.76,15.76,0,0,1,6.7,1.339,9.654,9.654,0,0,1,1.607.982,17.137,17.137,0,0,1,1.339,1.25,9.857,9.857,0,0,1,1.339,2.321,9.452,9.452,0,0,1,.446,2.767v.8M45.344,73.478h0c-.357,0-.714.089-.982.089H42.934V74.1c.179,2.5,1.25,4.642,3.571,4.642h.536c2.232-.268,3.571-1.875,4.731-1.875a4.4,4.4,0,0,1,1.518.536l1.161.714h0a9.3,9.3,0,0,1-3.035,2.857,14.057,14.057,0,0,1-7.767,2.232c-5.892,0-9.463-3.3-9.731-8.57v-.893c0-6.7,4.374-14.016,14.105-14.016a12.369,12.369,0,0,1,4.107.625h0a4.905,4.905,0,0,1,3.66,4.731c.089,2.678-1.607,7.588-10.445,8.392m27.05,4.285a23.675,23.675,0,0,0-2.053,4.285,11.408,11.408,0,0,1-5.178.982c-1.518,0-2.946-.714-3.66-4.642L59.271,67.229a35.318,35.318,0,0,0-2.053-6.606,22.835,22.835,0,0,1,2.41-.446h0c.179,0,.357-.089.536-.089h.089A1.743,1.743,0,0,0,60.878,60h.089c.446,0,.893-.089,1.428-.089h3.3a22.826,22.826,0,0,1,.982,2.143c.089.268.179.446.268.714a10.381,10.381,0,0,1,.357,1.607L68.823,74.55c1.25-2.41,2.41-4.91,3.482-7.41a35.474,35.474,0,0,0,1.785-5.178c.179-.625.268-1.161.446-1.785a9.7,9.7,0,0,1,1.607-.089h5a15.112,15.112,0,0,1-1.161,4.374,123.943,123.943,0,0,1-7.588,13.3m27.764.089h0A11.6,11.6,0,0,1,97.3,80.531h0c-.179.179-.446.268-.625.446a.087.087,0,0,0-.089.089c-.179.089-.357.268-.536.357a.087.087,0,0,0-.089.089,4.352,4.352,0,0,1-.625.268.087.087,0,0,0-.089.089c-.268.089-.446.179-.714.268h0c-.446.179-.982.357-1.518.536-.089,0-.089,0-.179.089-.179.089-.357.089-.536.179a.328.328,0,0,0-.268.089c-.179,0-.357.089-.536.089a.328.328,0,0,0-.268.089c-.179,0-.357.089-.536.089H87.481c-.179,0-.446-.089-.625-.089-.089,0-.268-.089-.357-.089-.179,0-.357-.089-.536-.089-.089,0-.268-.089-.357-.089-.179-.089-.357-.089-.446-.179s-.268-.089-.357-.179c-.179-.089-.268-.089-.446-.179-.089-.089-.268-.089-.357-.179s-.268-.179-.357-.268a.464.464,0,0,0-.357-.179c-.089-.089-.268-.179-.357-.268l-.268-.268-.268-.268-.268-.268-.268-.268a130575.481,130575.481,0,0,0-.536-.714.677.677,0,0,1-.179-.357c-.089-.089-.089-.268-.179-.357s-.089-.268-.179-.357-.089-.268-.179-.357c-.089-.179-.089-.268-.179-.446,0-.089-.089-.268-.089-.357,0-.179-.089-.268-.089-.446,0-.089-.089-.268-.089-.357a6.891,6.891,0,0,1-.179-1.339h0V74.282a14.045,14.045,0,0,1,5.892-11.695h0a7.834,7.834,0,0,1,1.875-1.071h0c.625-.268,1.339-.536,1.964-.8H89.8c.357-.089.625-.179.982-.268h.089c.357-.089.625-.089.982-.179h.089a4,4,0,0,1,.982-.089h2.5c.268,0,.446.089.714.089h.179c.268.089.536.089.8.179.089,0,.179.089.268.089.179.089.357.089.536.179.089,0,.179.089.268.089.179.089.446.179.625.268.089,0,.179.089.268.179s.268.179.357.268.179.089.268.179a1.232,1.232,0,0,0,.357.268c.179.089.268.268.446.357l.268.268.268.268.179.179c.179.268.446.536.625.8h0c.089.179.179.268.268.446,0,.089.089.089.089.179a10.031,10.031,0,0,1,1.071,4.821,15.3,15.3,0,0,1-3.125,8.57M117.744,51.7l-.536,3.749-.982,6.428-2.5,15.89c0,.179-.089.357-.089.536v.625c0,.089.089.179.089.268v.089c0,.089.089.179.179.268l.089.089.179.179.089.089a2.05,2.05,0,0,0,1.25.357,3.579,3.579,0,0,1-1.339,1.25c-.089,0-.089.089-.179.089-.089.089-.268.179-.357.268a.328.328,0,0,1-.268.089c-.089.089-.268.089-.357.179a6.152,6.152,0,0,1-.714.268c-.089,0-.179.089-.357.089a1.132,1.132,0,0,1-.536.089.675.675,0,0,0-.357.089c-.179,0-.357.089-.625.089h-2.678c-.089,0-.179,0-.179-.089-.089,0-.089,0-.179-.089a.312.312,0,0,1-.179-.089.087.087,0,0,1-.089-.089c-.089,0-.179-.089-.268-.089h-.089a2.791,2.791,0,0,1-.982-.8v-.089c-.089-.089-.089-.179-.179-.268a.087.087,0,0,0-.089-.089.328.328,0,0,1-.089-.268v-.089c0-.089-.089-.179-.089-.357v-.089c0-.089-.089-.268-.089-.357V79.37a5.893,5.893,0,0,1,.089-1.25L109,55.356a2.752,2.752,0,0,0,.089-.893c.179-1.071.268-2.053.357-3.125V48.75c.179,0,.268-.089.446-.089s.357-.089.536-.089c.268-.089.625-.089.982-.179a1.132,1.132,0,0,0,.536-.089c.536-.089,1.071-.089,1.7-.179.446,0,.8-.089,1.25-.089,1.071-.089,2.232-.089,3.3-.089,0,.714-.089,1.607-.089,2.5a3.362,3.362,0,0,0-.357,1.25m24.371,28.656c-1.071,1.607-3.392,2.678-6.16,2.678h-.893a2.607,2.607,0,0,1-.8-.179l-.8-.268c-1.25-.536-1.964-1.785-1.607-4.2l.089-.446a3.132,3.132,0,0,1-.446.714,15.135,15.135,0,0,1-.893,1.25,10.7,10.7,0,0,1-1.071.982c-.179.179-.357.268-.536.446a8.151,8.151,0,0,1-1.161.714,10.412,10.412,0,0,1-2.321.893,4.481,4.481,0,0,1-1.071.179c-.357,0-.625.089-.982.089h-.8a.537.537,0,0,1-.357-.089.328.328,0,0,1-.268-.089c-.089,0-.179-.089-.268-.089s-.179-.089-.268-.089a.087.087,0,0,1-.089-.089c-2.053-.893-2.678-3.3-2.143-6.517l1.428-9.106c0-.268.089-.536.089-.714v-.268a.8.8,0,0,1,.089-.446V65a8.661,8.661,0,0,0,.089-1.518V62.052a10.252,10.252,0,0,0-.089-1.607c.089,0,.179-.089.357-.089a.675.675,0,0,0,.357-.089h8.124a43.843,43.843,0,0,1-.714,7.142l-1.25,7.677c0,.179-.179,1.518-.179,1.875h0a5.09,5.09,0,0,0,.089,1.161,2.271,2.271,0,0,0,.179.625c.089.089.179.268.268.268h.089a2.31,2.31,0,0,0,1.25-.8,11.99,11.99,0,0,0,1.964-2.767c.179-.446.446-.8.625-1.339.179-.446.357-.982.536-1.428a2.607,2.607,0,0,0,.179-.8l.625-4.374c.089-.625.179-1.161.268-1.7.089-.8.179-1.607.268-2.5a23.755,23.755,0,0,0,.179-2.678,74.2,74.2,0,0,1,8.481-.536,49.787,49.787,0,0,1-.8,7.231l-1.7,10.713c0,1.518.714,2.321,2.053,2.321m5-2.857a8.168,8.168,0,0,1,.089-1.518l1.785-11.159c-.357,0-.536.089-.714.089a3.679,3.679,0,0,0-.8.179c-.268.089-.625.089-.893.179a14.562,14.562,0,0,1,0-4.821,6.788,6.788,0,0,0,1.25-.089h2.143c.625-1.7,1.607-3.125,1.964-5.089.536-.089,1.25-.179,1.964-.268.357,0,.536-.089.8-.089a3.349,3.349,0,0,0,.893-.089c.893-.089,1.875-.089,3.035-.089q-.134,2.276-.536,5.624H159.7c2.5,0,3.482-.268,4.285-.893a5.38,5.38,0,0,1,.714,2.589c0,1.25-.357,2.053-4.285,2.143H157.47l-1.785,11.159v.714c0,1.518.714,2.767,1.875,2.767,1.875,0,2.321-1.428,3.035-1.428a5.185,5.185,0,0,1,2.678,1.25,9.343,9.343,0,0,1-7.856,4.642c-5.178-.089-8.124-2.41-8.3-5.8Z" transform="translate(0.014 -43.126)" fill="url(#linear-gradient)"/>
</svg>
